<mxfile host="app.diagrams.net" agent="Mozilla/5.0 (Windows NT 10.0; Win64; x64) AppleWebKit/537.36 (KHTML, like Gecko) Chrome/127.0.0.0 Safari/537.36 OPR/113.0.0.0" version="24.7.17">
  <diagram name="Page-1" id="fYhnjsqXCfDCVw5Gg7Ah">
    <mxGraphModel dx="1805" dy="533" grid="1" gridSize="10" guides="1" tooltips="1" connect="1" arrows="1" fold="1" page="1" pageScale="1" pageWidth="850" pageHeight="1100" math="0" shadow="0">
      <root>
        <mxCell id="0" />
        <mxCell id="1" parent="0" />
        <mxCell id="E8o2fJA3cH4KqpCLfeab-3" value="" style="edgeStyle=orthogonalEdgeStyle;rounded=0;orthogonalLoop=1;jettySize=auto;html=1;" edge="1" parent="1" source="E8o2fJA3cH4KqpCLfeab-1" target="E8o2fJA3cH4KqpCLfeab-2">
          <mxGeometry relative="1" as="geometry" />
        </mxCell>
        <mxCell id="E8o2fJA3cH4KqpCLfeab-1" value="Inicio" style="ellipse;whiteSpace=wrap;html=1;" vertex="1" parent="1">
          <mxGeometry x="350" y="120" width="120" height="80" as="geometry" />
        </mxCell>
        <mxCell id="E8o2fJA3cH4KqpCLfeab-5" value="" style="edgeStyle=orthogonalEdgeStyle;rounded=0;orthogonalLoop=1;jettySize=auto;html=1;" edge="1" parent="1" source="E8o2fJA3cH4KqpCLfeab-2" target="E8o2fJA3cH4KqpCLfeab-4">
          <mxGeometry relative="1" as="geometry" />
        </mxCell>
        <mxCell id="E8o2fJA3cH4KqpCLfeab-2" value="saldo = 15&lt;div&gt;deposito = 0&lt;/div&gt;&lt;div&gt;escolha&lt;/div&gt;&lt;div&gt;levantar&lt;/div&gt;&lt;div&gt;sair&lt;/div&gt;" style="rounded=0;whiteSpace=wrap;html=1;" vertex="1" parent="1">
          <mxGeometry x="350" y="230" width="120" height="60" as="geometry" />
        </mxCell>
        <mxCell id="E8o2fJA3cH4KqpCLfeab-8" value="" style="edgeStyle=orthogonalEdgeStyle;rounded=0;orthogonalLoop=1;jettySize=auto;html=1;" edge="1" parent="1" source="E8o2fJA3cH4KqpCLfeab-4" target="E8o2fJA3cH4KqpCLfeab-7">
          <mxGeometry relative="1" as="geometry" />
        </mxCell>
        <mxCell id="E8o2fJA3cH4KqpCLfeab-4" value="Ler escolha" style="shape=parallelogram;perimeter=parallelogramPerimeter;whiteSpace=wrap;html=1;fixedSize=1;" vertex="1" parent="1">
          <mxGeometry x="350" y="330" width="120" height="60" as="geometry" />
        </mxCell>
        <mxCell id="E8o2fJA3cH4KqpCLfeab-25" value="" style="edgeStyle=orthogonalEdgeStyle;rounded=0;orthogonalLoop=1;jettySize=auto;html=1;" edge="1" parent="1" source="E8o2fJA3cH4KqpCLfeab-6" target="E8o2fJA3cH4KqpCLfeab-24">
          <mxGeometry relative="1" as="geometry" />
        </mxCell>
        <mxCell id="E8o2fJA3cH4KqpCLfeab-6" value="saldo = saldo + deposito" style="rounded=0;whiteSpace=wrap;html=1;" vertex="1" parent="1">
          <mxGeometry x="680" y="440" width="120" height="60" as="geometry" />
        </mxCell>
        <mxCell id="E8o2fJA3cH4KqpCLfeab-12" value="" style="edgeStyle=orthogonalEdgeStyle;rounded=0;orthogonalLoop=1;jettySize=auto;html=1;" edge="1" parent="1" source="E8o2fJA3cH4KqpCLfeab-7">
          <mxGeometry relative="1" as="geometry">
            <mxPoint x="290" y="470" as="targetPoint" />
          </mxGeometry>
        </mxCell>
        <mxCell id="E8o2fJA3cH4KqpCLfeab-14" value="" style="edgeStyle=orthogonalEdgeStyle;rounded=0;orthogonalLoop=1;jettySize=auto;html=1;" edge="1" parent="1">
          <mxGeometry relative="1" as="geometry">
            <mxPoint x="450" y="471" as="sourcePoint" />
            <mxPoint x="530" y="471" as="targetPoint" />
          </mxGeometry>
        </mxCell>
        <mxCell id="E8o2fJA3cH4KqpCLfeab-7" value="escolha == deposito" style="rhombus;whiteSpace=wrap;html=1;" vertex="1" parent="1">
          <mxGeometry x="370" y="430" width="80" height="80" as="geometry" />
        </mxCell>
        <mxCell id="E8o2fJA3cH4KqpCLfeab-13" value="Sim" style="text;html=1;align=center;verticalAlign=middle;whiteSpace=wrap;rounded=0;" vertex="1" parent="1">
          <mxGeometry x="438" y="448" width="60" height="30" as="geometry" />
        </mxCell>
        <mxCell id="E8o2fJA3cH4KqpCLfeab-22" value="" style="edgeStyle=orthogonalEdgeStyle;rounded=0;orthogonalLoop=1;jettySize=auto;html=1;" edge="1" parent="1" source="E8o2fJA3cH4KqpCLfeab-16" target="E8o2fJA3cH4KqpCLfeab-6">
          <mxGeometry relative="1" as="geometry" />
        </mxCell>
        <mxCell id="E8o2fJA3cH4KqpCLfeab-16" value="Ler quantidade quer depositar" style="shape=parallelogram;perimeter=parallelogramPerimeter;whiteSpace=wrap;html=1;fixedSize=1;" vertex="1" parent="1">
          <mxGeometry x="520" y="440" width="120" height="60" as="geometry" />
        </mxCell>
        <mxCell id="E8o2fJA3cH4KqpCLfeab-21" value="Não" style="text;html=1;align=center;verticalAlign=middle;whiteSpace=wrap;rounded=0;" vertex="1" parent="1">
          <mxGeometry x="327" y="447" width="60" height="30" as="geometry" />
        </mxCell>
        <mxCell id="E8o2fJA3cH4KqpCLfeab-26" style="edgeStyle=orthogonalEdgeStyle;rounded=0;orthogonalLoop=1;jettySize=auto;html=1;entryX=1;entryY=0.5;entryDx=0;entryDy=0;" edge="1" parent="1" source="E8o2fJA3cH4KqpCLfeab-24" target="E8o2fJA3cH4KqpCLfeab-4">
          <mxGeometry relative="1" as="geometry" />
        </mxCell>
        <mxCell id="E8o2fJA3cH4KqpCLfeab-24" value="Ler saldo" style="shape=parallelogram;perimeter=parallelogramPerimeter;whiteSpace=wrap;html=1;fixedSize=1;" vertex="1" parent="1">
          <mxGeometry x="680" y="330" width="120" height="60" as="geometry" />
        </mxCell>
        <mxCell id="E8o2fJA3cH4KqpCLfeab-29" value="" style="edgeStyle=orthogonalEdgeStyle;rounded=0;orthogonalLoop=1;jettySize=auto;html=1;" edge="1" parent="1" source="E8o2fJA3cH4KqpCLfeab-27" target="E8o2fJA3cH4KqpCLfeab-28">
          <mxGeometry relative="1" as="geometry" />
        </mxCell>
        <mxCell id="E8o2fJA3cH4KqpCLfeab-34" value="" style="edgeStyle=orthogonalEdgeStyle;rounded=0;orthogonalLoop=1;jettySize=auto;html=1;" edge="1" parent="1" source="E8o2fJA3cH4KqpCLfeab-27" target="E8o2fJA3cH4KqpCLfeab-33">
          <mxGeometry relative="1" as="geometry" />
        </mxCell>
        <mxCell id="E8o2fJA3cH4KqpCLfeab-27" value="escolha == levantar" style="rhombus;whiteSpace=wrap;html=1;" vertex="1" parent="1">
          <mxGeometry x="210" y="430" width="80" height="80" as="geometry" />
        </mxCell>
        <mxCell id="E8o2fJA3cH4KqpCLfeab-32" value="" style="edgeStyle=orthogonalEdgeStyle;rounded=0;orthogonalLoop=1;jettySize=auto;html=1;" edge="1" parent="1" source="E8o2fJA3cH4KqpCLfeab-28" target="E8o2fJA3cH4KqpCLfeab-31">
          <mxGeometry relative="1" as="geometry" />
        </mxCell>
        <mxCell id="E8o2fJA3cH4KqpCLfeab-28" value="escolha == sair" style="rhombus;whiteSpace=wrap;html=1;" vertex="1" parent="1">
          <mxGeometry x="60" y="430" width="80" height="80" as="geometry" />
        </mxCell>
        <mxCell id="E8o2fJA3cH4KqpCLfeab-30" value="Não" style="text;html=1;align=center;verticalAlign=middle;whiteSpace=wrap;rounded=0;" vertex="1" parent="1">
          <mxGeometry x="170" y="448" width="60" height="30" as="geometry" />
        </mxCell>
        <mxCell id="E8o2fJA3cH4KqpCLfeab-31" value="Fim" style="ellipse;whiteSpace=wrap;html=1;" vertex="1" parent="1">
          <mxGeometry x="40" y="580" width="120" height="80" as="geometry" />
        </mxCell>
        <mxCell id="E8o2fJA3cH4KqpCLfeab-37" value="" style="edgeStyle=orthogonalEdgeStyle;rounded=0;orthogonalLoop=1;jettySize=auto;html=1;" edge="1" parent="1" source="E8o2fJA3cH4KqpCLfeab-33" target="E8o2fJA3cH4KqpCLfeab-36">
          <mxGeometry relative="1" as="geometry" />
        </mxCell>
        <mxCell id="E8o2fJA3cH4KqpCLfeab-33" value="Ler quantidade para levantar" style="shape=parallelogram;perimeter=parallelogramPerimeter;whiteSpace=wrap;html=1;fixedSize=1;" vertex="1" parent="1">
          <mxGeometry x="190" y="600" width="120" height="60" as="geometry" />
        </mxCell>
        <mxCell id="E8o2fJA3cH4KqpCLfeab-39" value="" style="edgeStyle=orthogonalEdgeStyle;rounded=0;orthogonalLoop=1;jettySize=auto;html=1;" edge="1" parent="1" source="E8o2fJA3cH4KqpCLfeab-36" target="E8o2fJA3cH4KqpCLfeab-38">
          <mxGeometry relative="1" as="geometry" />
        </mxCell>
        <mxCell id="E8o2fJA3cH4KqpCLfeab-42" value="" style="edgeStyle=orthogonalEdgeStyle;rounded=0;orthogonalLoop=1;jettySize=auto;html=1;" edge="1" parent="1" source="E8o2fJA3cH4KqpCLfeab-36">
          <mxGeometry relative="1" as="geometry">
            <mxPoint x="130" y="780" as="targetPoint" />
          </mxGeometry>
        </mxCell>
        <mxCell id="E8o2fJA3cH4KqpCLfeab-36" value="levantar&amp;gt;saldo" style="rhombus;whiteSpace=wrap;html=1;" vertex="1" parent="1">
          <mxGeometry x="210" y="740" width="80" height="80" as="geometry" />
        </mxCell>
        <mxCell id="E8o2fJA3cH4KqpCLfeab-48" style="edgeStyle=orthogonalEdgeStyle;rounded=0;orthogonalLoop=1;jettySize=auto;html=1;entryX=0.5;entryY=1;entryDx=0;entryDy=0;" edge="1" parent="1" source="E8o2fJA3cH4KqpCLfeab-38" target="E8o2fJA3cH4KqpCLfeab-46">
          <mxGeometry relative="1" as="geometry">
            <mxPoint x="-140" y="940" as="targetPoint" />
          </mxGeometry>
        </mxCell>
        <mxCell id="E8o2fJA3cH4KqpCLfeab-38" value="Erro apenas ter saldo" style="shape=parallelogram;perimeter=parallelogramPerimeter;whiteSpace=wrap;html=1;fixedSize=1;" vertex="1" parent="1">
          <mxGeometry x="190" y="910" width="120" height="60" as="geometry" />
        </mxCell>
        <mxCell id="E8o2fJA3cH4KqpCLfeab-40" value="Sim" style="text;html=1;align=center;verticalAlign=middle;whiteSpace=wrap;rounded=0;" vertex="1" parent="1">
          <mxGeometry x="238" y="817" width="60" height="30" as="geometry" />
        </mxCell>
        <mxCell id="E8o2fJA3cH4KqpCLfeab-44" value="Não" style="text;html=1;align=center;verticalAlign=middle;whiteSpace=wrap;rounded=0;" vertex="1" parent="1">
          <mxGeometry x="166" y="755" width="60" height="30" as="geometry" />
        </mxCell>
        <mxCell id="E8o2fJA3cH4KqpCLfeab-50" value="" style="edgeStyle=orthogonalEdgeStyle;rounded=0;orthogonalLoop=1;jettySize=auto;html=1;" edge="1" parent="1" source="E8o2fJA3cH4KqpCLfeab-45" target="E8o2fJA3cH4KqpCLfeab-49">
          <mxGeometry relative="1" as="geometry" />
        </mxCell>
        <mxCell id="E8o2fJA3cH4KqpCLfeab-45" value="saldo = saldo - levantar" style="rounded=0;whiteSpace=wrap;html=1;" vertex="1" parent="1">
          <mxGeometry x="10" y="750" width="120" height="60" as="geometry" />
        </mxCell>
        <mxCell id="E8o2fJA3cH4KqpCLfeab-52" style="edgeStyle=orthogonalEdgeStyle;rounded=0;orthogonalLoop=1;jettySize=auto;html=1;entryX=0;entryY=0.5;entryDx=0;entryDy=0;" edge="1" parent="1" source="E8o2fJA3cH4KqpCLfeab-46" target="E8o2fJA3cH4KqpCLfeab-4">
          <mxGeometry relative="1" as="geometry">
            <mxPoint x="-255" y="360" as="targetPoint" />
            <Array as="points">
              <mxPoint x="-255" y="360" />
            </Array>
          </mxGeometry>
        </mxCell>
        <mxCell id="E8o2fJA3cH4KqpCLfeab-46" value="" style="ellipse;whiteSpace=wrap;html=1;aspect=fixed;fillColor=#000000;" vertex="1" parent="1">
          <mxGeometry x="-270" y="765" width="30" height="30" as="geometry" />
        </mxCell>
        <mxCell id="E8o2fJA3cH4KqpCLfeab-51" value="" style="edgeStyle=orthogonalEdgeStyle;rounded=0;orthogonalLoop=1;jettySize=auto;html=1;" edge="1" parent="1" source="E8o2fJA3cH4KqpCLfeab-49" target="E8o2fJA3cH4KqpCLfeab-46">
          <mxGeometry relative="1" as="geometry" />
        </mxCell>
        <mxCell id="E8o2fJA3cH4KqpCLfeab-49" value="Ler saldo" style="shape=parallelogram;perimeter=parallelogramPerimeter;whiteSpace=wrap;html=1;fixedSize=1;" vertex="1" parent="1">
          <mxGeometry x="-170" y="750" width="120" height="60" as="geometry" />
        </mxCell>
      </root>
    </mxGraphModel>
  </diagram>
</mxfile>
